<?xml version="1.0" encoding="utf-8"?>
<!-- Generator: Adobe Illustrator 23.0.0, SVG Export Plug-In . SVG Version: 6.00 Build 0)  -->
<svg version="1.1" id="图层_1" xmlns="http://www.w3.org/2000/svg" xmlns:xlink="http://www.w3.org/1999/xlink" x="0px" y="0px"
	 viewBox="0 0 48 48" style="enable-background:new 0 0 48 48;" xml:space="preserve">
<path d="M127.29-59.08"/>
<g>
	<path d="M23.59,20.62c0.82,0.17,1.54,0.65,2,1.36c0.46,0.7,0.63,1.55,0.46,2.37c-0.08,0.35-0.01,0.72,0.2,1.03
		c0.2,0.31,0.51,0.52,0.87,0.59c0.07,0.02,0.15,0.03,0.22,0.03c0.29,0.01,0.57-0.07,0.81-0.22c0.31-0.2,0.52-0.51,0.59-0.87
		c0.66-3.19-1.4-6.31-4.58-6.97c-0.07-0.02-0.15-0.03-0.22-0.03c-0.67-0.03-1.26,0.44-1.4,1.09c-0.08,0.35-0.01,0.73,0.2,1.03
		C22.92,20.33,23.23,20.54,23.59,20.62z"/>
	<path d="M25.01,16.32c1.85,0.37,3.48,1.48,4.51,3.06c1.05,1.57,1.41,3.5,1.03,5.35c-0.15,0.74,0.32,1.46,1.06,1.62
		c0.35,0.08,0.73,0.01,1.03-0.2c0.31-0.2,0.52-0.51,0.59-0.87c0.53-2.58,0.03-5.21-1.43-7.41c-1.45-2.2-3.67-3.71-6.24-4.24
		c0,0,0,0-0.01,0c-0.74-0.15-1.46,0.33-1.61,1.07C23.8,15.45,24.27,16.17,25.01,16.32z"/>
	<path d="M29.35,29.97c-0.34-0.22-0.63-0.38-0.81-0.44c-0.19-0.06-0.39-0.09-0.59-0.09c-0.73,0-1.5,0.39-2.35,1.2
		c-0.45,0.43-0.87,0.94-1.15,1.3c-0.11,0.14-0.28,0.23-0.46,0.25l-0.06,0c-0.16,0-0.32-0.06-0.44-0.17
		c-1.7-1.57-3.32-3.51-4.69-5.62c-1.39-2.14-2.51-4.44-3.24-6.67c-0.11-0.33,0.06-0.68,0.37-0.81c0.32-0.13,2.14-0.89,2.14-0.89
		l0.04-0.02c1.03-0.51,2.09-1.05,1.71-2.94c-0.36-1.83-0.9-3.57-1.46-4.79c-0.42-0.9-1.03-1.25-1.48-1.38
		c-0.22-0.07-0.45-0.1-0.69-0.1c-0.51,0-1.06,0.14-1.69,0.43c-0.46,0.2-4.49,2.11-4.5,6.94c-0.02,1.05,0.1,6.61,4.37,13.1
		c2.49,3.78,5.09,6.36,8.48,8.36c0.86,0.53,1.73,0.93,2.58,1.19c0.81,0.25,1.62,0.37,2.42,0.37c2.9,0,4.71-1.69,4.91-1.89
		c0.81-0.76,1.22-1.48,1.24-2.19c0.02-1.05-0.85-1.95-1.38-2.5C31.24,31.19,29.43,30.03,29.35,29.97z"/>
	<path d="M26.99,9.37c-0.74-0.16-1.46,0.32-1.62,1.06v0.01c-0.07,0.36,0,0.73,0.2,1.03c0.2,0.3,0.51,0.52,0.87,0.59
		c2.89,0.6,5.37,2.29,7,4.76c1.63,2.47,2.19,5.42,1.6,8.31c-0.07,0.36,0,0.73,0.2,1.03c0.24,0.37,0.65,0.6,1.09,0.62
		c0.29,0.01,0.57-0.07,0.81-0.22c0.3-0.2,0.52-0.51,0.59-0.87C39.25,18.22,34.44,10.91,26.99,9.37z"/>
</g>
</svg>
