<?xml version="1.0" encoding="utf-8"?>
<!-- Generator: Adobe Illustrator 23.0.0, SVG Export Plug-In . SVG Version: 6.00 Build 0)  -->
<svg version="1.1" id="图层_1" xmlns="http://www.w3.org/2000/svg" xmlns:xlink="http://www.w3.org/1999/xlink" x="0px" y="0px"
	 viewBox="0 0 48 48" style="enable-background:new 0 0 48 48;" xml:space="preserve">
<path d="M127.29-59.08"/>
<g>
	<path d="M14.12,30.84c-2.1,0-3.8,1.7-3.8,3.8s1.7,3.8,3.8,3.8s3.8-1.7,3.8-3.8C17.92,32.54,16.22,30.84,14.12,30.84z"/>
	<path d="M39.94,9.56h-12.9c-2.9,0-3.04,3.04-3.04,3.04v19c0,3.03,3.04,3.04,3.04,3.04h0.76c0-3.36,2.72-6.08,6.08-6.08
		c3.36,0,6.08,2.72,6.08,6.08c0,0,3.04,0.04,3.04-3.04v-19C43,9.61,39.94,9.56,39.94,9.56z"/>
	<path d="M33.88,30.84c-2.1,0-3.8,1.7-3.8,3.8s1.7,3.8,3.8,3.8c2.1,0,3.8-1.7,3.8-3.8S35.98,30.84,33.88,30.84z"/>
	<path d="M19.44,14.12h-7.6C10.32,14.12,5,20.4,5,24.76v6.84c0,3.1,2.28,3.04,2.28,3.04h0.76c0-3.36,2.72-6.08,6.08-6.08
		c3.32,0,6.02,2.67,6.07,5.98c0.9-0.21,2.29-0.87,2.29-2.94V17.16C22.48,14.16,19.44,14.12,19.44,14.12z M19.43,25.52H8.79
		c0-4.23,3.94-7.61,5.06-7.61h5.57V25.52z"/>
</g>
</svg>
