<?xml version="1.0" encoding="utf-8"?>
<!-- Generator: Adobe Illustrator 23.0.0, SVG Export Plug-In . SVG Version: 6.00 Build 0)  -->
<svg version="1.1" id="图层_1" xmlns="http://www.w3.org/2000/svg" xmlns:xlink="http://www.w3.org/1999/xlink" x="0px" y="0px"
	 viewBox="0 0 48 48" style="enable-background:new 0 0 48 48;" xml:space="preserve">
<path d="M127.29-59.08"/>
<g>
	<path d="M34.84,32.7c0.29,0.29,0.29,0.74,0,1.03c-0.29,0.3-0.74,0.3-1.03,0l-3.39-3.32l-3.39,3.39c-0.29,0.29-0.74,0.29-1.03,0
		c-0.3-0.3-0.3-0.74,0-1.03l3.39-3.39l-3.39-3.39c-0.3-0.3-0.3-0.74,0-1.03c0.29-0.29,0.74-0.29,1.03,0l3.39,3.39l3.39-3.39
		c0.29-0.29,0.74-0.29,1.03,0c0.29,0.29,0.29,0.74,0,1.03l-3.39,3.39L34.84,32.7z M30.41,19.72c-5.31,0-9.59,4.28-9.59,9.59
		c0,5.31,4.28,9.59,9.59,9.59c5.31,0,9.59-4.28,9.59-9.59C40,24,35.72,19.72,30.41,19.72L30.41,19.72z M30.41,19.72"/>
	<path d="M31.52,11.17h-4.28c0-1.18-0.96-2.14-2.14-2.14h-8.55c-1.18,0-2.14,0.96-2.14,2.14h-4.28C8.96,11.17,8,12.13,8,13.31v23.52
		c0,1.18,0.96,2.14,2.14,2.14h13.57c-3.02-2.14-5.01-5.6-5.01-9.59c0-6.49,5.24-11.72,11.72-11.72c1.11,0,2.21,0.15,3.17,0.44v-4.72
		C33.66,12.13,32.7,11.17,31.52,11.17L31.52,11.17z M12.28,17.59v-0.22h9v2.14h-9V17.59z M16.55,32.55h-4.28v-2.14h4.28V32.55z
		 M16.55,26.14h-4.28V24h4.28V26.14z M16.55,26.14"/>
</g>
</svg>
