<?xml version="1.0" encoding="utf-8"?>
<!-- Generator: Adobe Illustrator 23.0.0, SVG Export Plug-In . SVG Version: 6.00 Build 0)  -->
<svg version="1.1" id="图层_1" xmlns="http://www.w3.org/2000/svg" xmlns:xlink="http://www.w3.org/1999/xlink" x="0px" y="0px"
	 viewBox="0 0 48 48" style="enable-background:new 0 0 48 48;" xml:space="preserve">
<path d="M127.29-59.08"/>
<g>
	<path d="M20.55,12.15h6.65c0.77,0,1.42-0.72,1.42-1.62c0-0.89-0.65-1.61-1.46-1.61h-6.61c-0.81,0-1.46,0.72-1.46,1.61
		C19.09,11.43,19.74,12.15,20.55,12.15z"/>
	<path d="M34.34,10L34.34,10l-3.29,0c0.03,0.18,0.05,0.36,0.05,0.54c0,1.36-0.98,2.69-2.16,2.69H18.83c-1.23,0-2.22-1.34-2.22-2.69
		c0-0.18,0.02-0.36,0.05-0.54h-3.33C10.66,10,10,11.52,10,13.71v21.7c0,2.35,0.94,3.67,3.54,3.67h20.6c2.6,0,3.86-1.03,3.86-3.67
		v-21.7C38,11.52,36.82,10,34.34,10z M30.96,31.42H16.64c-0.53,0-1.05-0.65-1.05-1.18c0-0.53,0.45-0.98,0.97-0.98h14.28
		c0.53,0,0.97,0.41,1.01,0.98C31.85,30.78,31.49,31.42,30.96,31.42z M31.02,25.68H16.7c-0.53,0-0.86-0.57-0.86-1.1
		c0-0.53,0.45-1.06,0.97-1.06h14.28c0.53,0,0.97,0.49,1.01,1.06C32.1,25.11,31.55,25.68,31.02,25.68z M31.02,19.78H16.7
		c-0.53,0-0.86-0.57-0.86-1.1s0.45-1.06,0.97-1.06h14.28c0.53,0,0.97,0.49,1.01,1.06C32.1,19.21,31.55,19.78,31.02,19.78z"/>
</g>
</svg>
