<?xml version="1.0" encoding="utf-8"?>
<!-- Generator: Adobe Illustrator 23.0.0, SVG Export Plug-In . SVG Version: 6.00 Build 0)  -->
<svg version="1.1" id="图层_1" xmlns="http://www.w3.org/2000/svg" xmlns:xlink="http://www.w3.org/1999/xlink" x="0px" y="0px"
	 viewBox="0 0 48 48" style="enable-background:new 0 0 48 48;" xml:space="preserve">
<path d="M127.29-59.08"/>
<g>
	<path d="M32.96,41.96c0.08-0.01,0.16-0.03,0.24-0.05c-0.12,0.02-0.25,0.05-0.37,0.07C32.87,41.97,32.92,41.96,32.96,41.96z"/>
	<path d="M37.41,37.95c-0.07-0.65-0.13-1.31-0.18-1.96c-0.14-2.18-1.29-3.61-3.21-4.43c-1.66-0.71-3.36-1.31-5.06-1.92
		c-0.2-0.07-0.59,0.06-0.75,0.23c-2.54,2.85-5.88,2.86-8.37,0c-0.13-0.15-0.44-0.31-0.6-0.26c-2.28,0.68-4.57,1.37-6.56,2.76
		c-0.93,0.65-1.52,1.53-1.68,2.66c-0.14,0.96-0.3,1.92-0.43,2.88c1.31,1,2.72,1.85,4.22,2.53c-0.01,0.02-0.02,0.05-0.03,0.07
		c2.7,1.23,5.69,1.93,8.83,1.99c-0.99,0.01-1.98,0.01-2.96-0.02c2.03,0.11,4.06,0.12,6.09,0.03c-0.66,0.01-1.33,0-2-0.01
		c0.13,0,0.26-0.01,0.39-0.02c0.1,0,0.21-0.01,0.31-0.02c0.02,0,0.04,0,0.06,0c2.79-0.18,5.45-0.87,7.87-1.98
		c-0.01-0.02-0.02-0.05-0.02-0.08C34.78,39.72,36.14,38.91,37.41,37.95z"/>
	<path d="M17.43,24.17c0.26,0.62,0.61,1.22,0.99,1.77c2.67,3.81,8.02,4.02,10.9,0.37c0.76-0.96,1.19-2.19,1.77-3.29
		c0.11-0.21,0.19-0.51,0.37-0.62c1.41-0.86,1.68-2.26,1.75-3.71c0.04-0.88-0.2-1.74-1.12-2.13c-0.4-0.17-0.51-0.37-0.48-0.78
		c0.07-0.96,0.2-1.93,0.14-2.89c-0.12-2.07-0.99-3.81-2.8-4.9c-1.1-0.67-2.33-1.13-3.62-1.74c-0.15-0.61-0.42-0.81-1.33-0.8
		c-0.69,0-1.26,0.16-1.28,0.91c-0.84,0.34-1.61,0.67-2.4,0.96c-2.89,1.06-4.71,4.54-3.94,7.52c0.11,0.43,0.13,0.91,0.03,1.34
		c-0.04,0.2-0.48,0.28-0.67,0.49c-0.29,0.3-0.64,0.63-0.74,1.01c-0.37,1.49-0.17,3,0.92,4.08C16.65,22.49,17.05,23.28,17.43,24.17z
		 M24.64,9.88c0.02-0.07,0.03-0.14,0.04-0.21c0.01-0.06,0.03-0.09,0.1-0.09c0.28,0,0.56,0,0.84,0c0.3,0,0.61,0.01,0.91,0.01
		c0.36,0,0.7,0.09,0.98,0.32c0.17,0.14,0.28,0.31,0.36,0.51c0.12,0.3,0.13,0.6,0.1,0.91c-0.04,0.37-0.19,0.71-0.45,1
		c-0.24,0.27-0.53,0.44-0.87,0.54c-0.17,0.05-0.34,0.07-0.51,0.08c-0.27,0.01-0.55,0.01-0.83,0c-0.07,0-0.11,0.03-0.12,0.1
		c-0.04,0.24-0.09,0.47-0.14,0.7c-0.07,0.35-0.14,0.7-0.21,1.05c-0.01,0.07-0.04,0.12-0.13,0.12c-0.41-0.01-0.82-0.01-1.23-0.01
		c-0.07,0-0.08-0.02-0.04-0.08c0.2-0.3,0.39-0.6,0.59-0.9c0.24-0.37,0.48-0.74,0.72-1.12c0.18-0.27,0.35-0.55,0.52-0.82
		c0.07-0.11,0.05-0.13-0.07-0.14c-0.25-0.03-0.5-0.07-0.75-0.11c-0.05-0.01-0.1-0.02-0.14-0.02c-0.07,0-0.08-0.04-0.07-0.1
		c0.03-0.16,0.06-0.32,0.1-0.48C24.45,10.72,24.55,10.3,24.64,9.88z M20.44,12.97l0.45-2.29c0.07-0.35,0.14-0.69,0.2-1.04
		c0.01-0.06,0.04-0.08,0.09-0.08c0.37,0,0.75,0,1.12,0c0.08,0,0.1,0.02,0.08,0.11l-0.29,1.47c0,0.02-0.01,0.04-0.01,0.07l0.02,0.01
		c0.05-0.06,0.09-0.13,0.14-0.19c0.33-0.47,0.65-0.93,0.98-1.4c0.03-0.05,0.07-0.07,0.13-0.07c0.29,0,0.58,0,0.87,0
		c0.03,0,0.06,0.01,0.08,0.04c0.02,0.03,0.01,0.06-0.01,0.09c-0.36,0.51-0.71,1.03-1.07,1.54c-0.2,0.29-0.41,0.59-0.61,0.88
		c-0.01,0.02-0.02,0.03-0.03,0.06c0.06,0.01,0.1,0.01,0.15,0.02c0.36,0.03,0.72,0.07,1.09,0.1c0.12,0.01,0.13,0.03,0.09,0.14
		l-0.81,2.41c-0.01,0.02-0.01,0.03-0.02,0.05c-0.03,0.06-0.07,0.06-0.11,0.01c-0.05-0.08-0.1-0.17-0.15-0.25l-1-1.73
		c-0.01-0.02-0.03-0.04-0.06-0.08c-0.03,0.14-0.05,0.26-0.08,0.39c-0.11,0.54-0.21,1.09-0.31,1.63c-0.01,0.07-0.04,0.1-0.12,0.1
		c-0.36,0-0.72,0-1.08,0c-0.1,0-0.12-0.02-0.1-0.12L20.44,12.97z M16.45,17.31c0.14,0.2,0.31,0.39,0.41,0.62
		c0.22,0.5,0.4,1.01,0.59,1.51l0.22-0.05v-2.07c0.09-0.02,0.16-0.05,0.18-0.03c1.13,1.28,1.3,0.85,2.36,0.12
		c0.66-0.45,1.35-0.87,2.08-1.19c1.43-0.62,2.85-0.43,4.21,0.26c0.58,0.3,1.11,0.69,1.64,1.07c1.01,0.73,1.05,0.74,2.09-0.1v1.94
		l0.25,0.06c0.21-0.56,0.41-1.12,0.63-1.67c0.07-0.17,0.22-0.45,0.3-0.44c0.2,0.02,0.43,0.15,0.55,0.31
		c0.14,0.19,0.25,0.46,0.25,0.69c-0.03,1.33,0,2.7-1.59,3.33c-0.18,0.07-0.27,0.45-0.34,0.7c-0.49,1.58-1.19,3.04-2.45,4.16
		c-2.42,2.14-6.12,1.9-8.25-0.53c-0.95-1.08-1.54-2.34-1.93-3.71c-0.1-0.36-0.24-0.61-0.66-0.79c-0.38-0.16-0.79-0.63-0.89-1.04
		c-0.2-0.83-0.23-1.7-0.24-2.56C15.85,17.71,16.24,17.51,16.45,17.31z"/>
	<path d="M25.55,11.81c0.1,0,0.21,0,0.31,0c0.12,0,0.25,0.01,0.36-0.01c0.31-0.06,0.54-0.39,0.5-0.71
		c-0.03-0.23-0.18-0.36-0.41-0.36c-0.18,0-0.37,0-0.55,0c-0.07,0-0.1,0.03-0.12,0.09c-0.03,0.16-0.06,0.31-0.09,0.47
		c-0.03,0.14-0.06,0.28-0.09,0.42C25.45,11.8,25.46,11.81,25.55,11.81z"/>
</g>
</svg>
